<svg width="120" height="120" viewBox="0 0 120 120" fill="none" xmlns="http://www.w3.org/2000/svg">
<mask id="mask0_585_37941" style="mask-type:luminance" maskUnits="userSpaceOnUse" x="0" y="0" width="120" height="120">
<path d="M0 0H120V120H0V0Z" fill="white"/>
</mask>
<g mask="url(#mask0_585_37941)">
<path d="M31.07 83.67C33.1546 83.67 35.1538 82.8419 36.6278 81.3679C38.1019 79.8938 38.93 77.8946 38.93 75.81C38.93 73.7254 38.1019 71.7262 36.6278 70.2521C35.1538 68.7781 33.1546 67.95 31.07 67.95C28.9854 67.95 26.9861 68.7781 25.5121 70.2521C24.0381 71.7262 23.21 73.7254 23.21 75.81C23.21 77.8946 24.0381 79.8938 25.5121 81.3679C26.9861 82.8419 28.9854 83.67 31.07 83.67Z" fill="#28BF9A"/>
<path d="M106.115 80.543L118.581 93.009C119.123 93.5769 119.422 94.3345 119.413 95.1197C119.404 95.9049 119.088 96.6554 118.533 97.2106C117.977 97.7659 117.227 98.0818 116.442 98.0909C115.656 98.0999 114.899 97.8013 114.331 97.259L101.865 84.793C101.586 84.5139 101.365 84.1826 101.214 83.818C101.063 83.4534 100.985 83.0626 100.985 82.668C100.985 82.2733 101.063 81.8826 101.214 81.518C101.365 81.1533 101.586 80.8221 101.865 80.543C102.144 80.2639 102.475 80.0426 102.84 79.8916C103.205 79.7405 103.595 79.6628 103.99 79.6628C104.385 79.6628 104.775 79.7405 105.14 79.8916C105.505 80.0426 105.836 80.2639 106.115 80.543ZM25.92 21.84C32.542 21.84 37.91 27.208 37.91 33.83C37.91 40.452 32.542 45.82 25.92 45.82C19.298 45.82 13.93 40.452 13.93 33.83C13.93 27.208 19.298 21.84 25.92 21.84Z" fill="#116DFF"/>
<path d="M78.26 34.81C82.008 36.149 85.3612 38.4049 88.0139 41.372C90.6666 44.3391 92.5344 47.923 93.447 51.797C95.8644 52.3884 98.1242 53.4984 100.07 55.05C100.137 55.53 100.187 56.01 100.22 56.49C100.594 60.9322 99.9012 65.3995 98.2 69.52C95.6136 75.8231 90.8222 80.9699 84.72 84C84.29 84.22 83.85 84.42 83.41 84.61C80.8858 83.6738 78.6166 82.1582 76.785 80.185C73.1743 81.2158 69.3711 81.379 65.6853 80.6615C61.9996 79.944 58.5354 78.366 55.575 76.056C52.6146 73.746 50.2418 70.7695 48.6497 67.3687C47.0576 63.968 46.2914 60.2392 46.4134 56.4862C46.5354 52.7332 47.5422 49.0622 49.3517 45.772C51.1613 42.4818 53.7225 39.6656 56.8266 37.5528C59.9308 35.44 63.4901 34.0903 67.2147 33.6136C70.9393 33.137 74.7238 33.5469 78.26 34.81ZM16.043 59.267L18.815 62.039L16.043 64.811L13.271 62.039L16.043 59.267ZM6.10999 48.61L7.53999 53.05L11.98 54.48L7.53999 55.91L6.10999 60.35L4.67999 55.91L0.23999 54.48L4.67999 53.05L6.10999 48.61ZM106.06 23.28L107.74 28.49L112.94 30.16L107.74 31.84L106.06 37.05L104.38 31.84L99.17 30.16L104.38 28.49L106.06 23.28Z" fill="#C2E2FF"/>
<path d="M73.08 54.47C74.738 54.47 76.251 55.092 77.398 56.115L77.21 56.3C77.5537 55.9495 77.9141 55.6158 78.29 55.3C78.742 55.338 79.19 55.412 79.63 55.52C80.9422 55.8262 82.172 56.4145 83.2339 57.244C84.2958 58.0735 85.1643 59.1243 85.7791 60.3234C86.3938 61.5225 86.7401 62.841 86.7938 64.1874C86.8475 65.5338 86.6073 66.8758 86.09 68.12C85.1459 70.3879 83.3402 72.1883 81.0696 73.1258C78.799 74.0634 76.2491 74.0612 73.98 73.12L73.87 73.07C73.4518 72.8936 73.0474 72.6863 72.66 72.45V72.32L72.6 72.02C72.51 71.58 72.43 71.16 72.38 70.73C72.2319 69.6255 72.1917 68.5093 72.26 67.397C70.6246 67.1867 69.1306 66.3619 68.0814 65.09C67.0321 63.8182 66.5063 62.1946 66.6107 60.5491C66.7151 58.9036 67.4418 57.3596 68.6434 56.2305C69.8449 55.1014 71.4312 54.4719 73.08 54.47ZM56.8 46.45C57.3266 46.45 57.848 46.5537 58.3345 46.7552C58.8211 46.9568 59.2631 47.2521 59.6355 47.6245C60.0078 47.9969 60.3032 48.4389 60.5047 48.9254C60.7063 49.4119 60.81 49.9334 60.81 50.46C60.81 50.9866 60.7063 51.508 60.5047 51.9946C60.3032 52.4811 60.0078 52.9231 59.6355 53.2955C59.2631 53.6679 58.8211 53.9632 58.3345 54.1647C57.848 54.3663 57.3266 54.47 56.8 54.47C55.7365 54.47 54.7165 54.0475 53.9645 53.2955C53.2125 52.5435 52.79 51.5235 52.79 50.46C52.79 49.3965 53.2125 48.3765 53.9645 47.6245C54.7165 46.8725 55.7365 46.45 56.8 46.45ZM78.26 34.81C78.26 36.9317 77.4171 38.9666 75.9168 40.4668C74.4165 41.9671 72.3817 42.81 70.26 42.81C68.1382 42.81 66.1034 41.9671 64.6031 40.4668C63.1028 38.9666 62.26 36.9317 62.26 34.81C67.4339 32.966 73.086 32.966 78.26 34.81Z" fill="white"/>
<path d="M78.31 55.34C81.3511 52.7886 85.1808 51.367 89.1501 51.3159C93.1194 51.2649 96.9843 52.5876 100.09 55.06C100.465 55.357 100.828 55.67 101.176 55.997L101.52 56.33V56.29C103.117 57.8846 104.385 59.7785 105.249 61.8633C106.114 63.9481 106.559 66.183 106.559 68.44C106.559 70.697 106.114 72.9319 105.249 75.0167C104.385 77.1015 103.117 78.9954 101.52 80.59C99.2018 82.9217 96.2625 84.5382 93.0519 85.2474C89.8414 85.9565 86.4946 85.7283 83.41 84.59C80.8259 83.6285 78.5107 82.0601 76.6592 80.0171C74.8077 77.974 73.4743 75.516 72.771 72.85L72.681 72.489V72.359L72.621 72.059C72.531 71.619 72.451 71.199 72.401 70.769C72.0549 68.1948 72.2977 65.5757 73.111 63.109L73.271 62.649V62.509C73.594 61.614 73.999 60.75 74.481 59.929C75.2337 58.6152 76.1586 57.4079 77.231 56.339C77.577 55.979 77.937 55.645 78.311 55.339L78.31 55.34ZM100.24 56.46C97.4524 53.9343 93.8718 52.4588 90.114 52.2872C86.3563 52.1157 82.6562 53.2588 79.65 55.52C79.043 55.969 78.472 56.464 77.94 57C76.3947 58.5346 75.1816 60.3706 74.376 62.394L74.21 62.83H73.69L74.16 63C73.1956 65.694 72.9556 68.5941 73.464 71.41L73.54 71.8L73.61 72.1C73.69 72.45 73.77 72.78 73.87 73.1C74.6422 75.6615 76.0375 77.9915 77.931 79.8815C79.8245 81.7716 82.1571 83.1625 84.72 83.93C87.4531 84.7594 90.3571 84.85 93.1366 84.1927C95.9161 83.5354 98.4719 82.1537 100.544 80.188L100.81 79.93V79.89C102.364 78.3427 103.586 76.4952 104.403 74.46C105.22 72.4249 105.613 70.2447 105.56 68.0525C105.507 65.8603 105.007 63.7019 104.093 61.7088C103.178 59.7158 101.867 57.9299 100.24 56.46ZM47.46 30.56C47.894 33.45 35.184 36.266 27.708 37.434L26.88 37.56C22.0742 38.3075 17.2229 38.7251 12.36 38.81L11.737 38.806C8.046 38.756 5.289 38.256 5.09 36.94C4.88 35.55 7.81 33.94 13.83 32.32L14.09 33.32L13.393 33.511C7.295 35.216 6.033 36.492 6.09 36.82C6.24 37.82 13.44 38.6 26.68 36.6L27.712 36.44C40.096 34.475 46.395 31.749 46.422 30.75L46.42 30.71C46.42 30.42 44.61 29.4 36.8 29.78V28.78L37.605 28.744C43.922 28.489 47.239 29.101 47.46 30.56Z" fill="#192C55"/>
</g>
</svg>
