<svg width="104" height="105" viewBox="0 0 104 105" fill="white" xmlns="http://www.w3.org/2000/svg">
<path fill-rule="evenodd" clip-rule="evenodd" d="M37.6957 82.6513L69.9963 63.5075L44.4713 20.4394L12.1706 39.5832L37.6957 82.6513Z" fill="#28BF9A"/>
<path fill-rule="evenodd" clip-rule="evenodd" d="M50.4047 42.8892L50.8467 43.6345L29.3127 56.397L28.8707 55.6517L50.4047 42.8892ZM47.9638 38.9964L48.4058 39.7417L26.8718 52.5042L26.4298 51.7589L47.9638 38.9964ZM45.5711 34.9588L46.0131 35.7042L24.4791 48.4667L24.0371 47.7214L45.5711 34.9588ZM30.0429 38.7057L30.484 39.4519L22.086 44.4292L21.644 43.6838L30.0429 38.7057Z" fill="#192C55"/>
<path fill-rule="evenodd" clip-rule="evenodd" d="M66.3043 82.6513L34.0037 63.5075L59.5287 20.4394L80.5792 32.9159L81.7925 33.1213L81.3159 33.3519L91.8294 39.5832L66.3043 82.6513Z" fill="#116DFF"/>
<path fill-rule="evenodd" clip-rule="evenodd" d="M70.6238 79.0217H32.4905L33.3762 28.2333H71.5095L70.6238 79.0217Z" fill="white"/>
<path fill-rule="evenodd" clip-rule="evenodd" d="M52 50.7665C62.5523 50.7665 71.482 57.9408 74.1008 67.7586L74.1858 68.0868L82.5864 70.8888C87.2491 72.4444 90.3379 76.8289 90.2512 81.7698C90.1427 88.0103 85.0668 93.0863 78.8582 93.23L78.5876 93.2332H24.8551C18.5241 93.2332 13.481 88.1008 13.5911 81.7698C13.6761 76.9204 16.8001 72.607 21.3758 70.9781L21.6363 70.8888L29.783 68.2021C32.2487 58.1574 41.2889 50.7665 52 50.7665ZM48.5852 36.0074L55.1199 44.18L55.6304 43.9564L55.6832 43.5387L58.8206 39.9767L65.5632 47.3H38.6619L48.5852 36.0074ZM54.9526 33.4333C55.9094 33.4333 56.6721 34.2099 56.6556 35.1667C56.6399 36.08 55.919 36.829 55.0214 36.8953L54.892 36.9C53.9352 36.9 53.1725 36.1235 53.189 35.1667C53.2054 34.2099 53.995 33.4333 54.9526 33.4333Z" fill="#C2E2FF"/>
<path fill-rule="evenodd" clip-rule="evenodd" d="M51.7105 66.3589L52.5772 66.3745L52.4411 74.1667H60.2333V75.0333H52.4255L52.2895 82.8411L51.4228 82.8255L51.5589 75.0333H43.7667V74.1667H51.5745L51.7105 66.3589ZM55.6834 43.5386L57.5034 45.9133L56.8187 46.4419L55.1201 44.1799L55.6834 43.5386ZM83.6332 32.6014C84.9852 33.3294 85.4878 35.0194 84.7598 36.3714L80.6778 43.9374C80.3138 44.6048 79.6292 44.9861 78.9185 44.9861C78.5978 44.9861 78.2685 44.9081 77.9738 44.7521C77.0032 44.2234 76.6392 43.0101 77.1592 42.0394L79.5772 37.5674L80.3398 37.9834L77.9218 42.4554C77.6272 43.0014 77.8352 43.6948 78.3812 43.9894C78.6498 44.1281 78.9532 44.1628 79.2392 44.0761C79.5338 43.9894 79.7678 43.7988 79.9152 43.5301L83.9972 35.9554C84.4998 35.0281 84.1532 33.8668 83.2258 33.3641C82.6105 33.0348 81.8998 33.0694 81.3452 33.3988L80.5218 32.9134C80.8078 32.6708 81.1458 32.4974 81.5185 32.3848C82.2292 32.1681 82.9832 32.2461 83.6332 32.6014Z" fill="#192C55"/>
</svg>
