<svg width="37" height="37" viewBox="0 0 37 37" fill="none" xmlns="http://www.w3.org/2000/svg">
<g clip-path="url(#clip0_546_17945)">
<path d="M32.8887 0.513916H4.11089C2.1242 0.513916 0.513672 2.12445 0.513672 4.11114V32.8889C0.513672 34.8756 2.1242 36.4861 4.11089 36.4861H32.8887C34.8754 36.4861 36.4859 34.8756 36.4859 32.8889V4.11114C36.4859 2.12445 34.8754 0.513916 32.8887 0.513916Z" fill="#ECEFF3"/>
<path d="M32.8887 0.513916H4.11089C2.1242 0.513916 0.513672 2.12445 0.513672 4.11114V32.8889C0.513672 34.8756 2.1242 36.4861 4.11089 36.4861H32.8887C34.8754 36.4861 36.4859 34.8756 36.4859 32.8889V4.11114C36.4859 2.12445 34.8754 0.513916 32.8887 0.513916Z" stroke="#ECEFF3" stroke-width="1.02778"/>
<path d="M13.9876 24.2558L13.2579 23.526C12.6845 22.9533 12.2296 22.2732 11.9193 21.5245C11.609 20.7759 11.4492 19.9735 11.4492 19.1631C11.4492 18.3527 11.609 17.5502 11.9193 16.8016C12.2296 16.053 12.6845 15.3729 13.2579 14.8002L22.7135 24.2558C22.1407 24.8291 21.4606 25.2839 20.712 25.5942C19.9633 25.9046 19.1608 26.0643 18.3505 26.0643C17.5401 26.0643 16.7377 25.9046 15.989 25.5942C15.2404 25.2839 14.5603 24.8291 13.9876 24.2558ZM24.8923 23.526C24.9887 23.4305 25.0651 23.3168 25.1172 23.1916C25.1694 23.0663 25.1964 22.932 25.1964 22.7963C25.1964 22.6606 25.1694 22.5263 25.1172 22.401C25.0651 22.2757 24.9887 22.1621 24.8923 22.0666L15.4162 12.6213C15.3207 12.5249 15.207 12.4485 15.0817 12.3963C14.9565 12.3441 14.8222 12.3173 14.6865 12.3173C14.5507 12.3173 14.4164 12.3441 14.2912 12.3963C14.1659 12.4485 14.0523 12.5249 13.9568 12.6213C13.8604 12.7168 13.7839 12.8305 13.7318 12.9558C13.6796 13.081 13.6528 13.2154 13.6528 13.351C13.6528 13.4867 13.6796 13.621 13.7318 13.7462C13.7839 13.8715 13.8604 13.9852 13.9568 14.0808L23.4021 23.526C23.4981 23.6271 23.6136 23.7075 23.7418 23.7625C23.8698 23.8175 24.0077 23.8459 24.1472 23.8459C24.2866 23.8459 24.4245 23.8175 24.5527 23.7625C24.6807 23.7075 24.7963 23.6271 24.8923 23.526ZM21.8707 12.0149C22.0621 11.8223 22.1696 11.5619 22.1696 11.2903C22.1696 11.0188 22.0621 10.7583 21.8707 10.5658C21.7751 10.4694 21.6614 10.393 21.5361 10.3408C21.411 10.2886 21.2766 10.2617 21.141 10.2617C21.0052 10.2617 20.8709 10.2886 20.7457 10.3408C20.6204 10.393 20.5067 10.4694 20.4112 10.5658L17.5437 13.4333L18.9929 14.8824L21.8707 12.0149ZM26.9479 17.1538C27.0442 17.0582 27.1207 16.9446 27.1728 16.8193C27.225 16.6941 27.2519 16.5598 27.2519 16.4241C27.2519 16.2884 27.225 16.1541 27.1728 16.0288C27.1207 15.9035 27.0442 15.7898 26.9479 15.6944C26.7553 15.5029 26.4948 15.3955 26.2233 15.3955C25.9518 15.3955 25.6912 15.5029 25.4987 15.6944L22.6107 18.5002L24.0598 19.9494L26.9479 17.1538Z" fill="#3B4057"/>
</g>
<defs>
<clipPath id="clip0_546_17945">
<rect width="37" height="37" fill="white"/>
</clipPath>
</defs>
</svg>
