<svg width="26" height="26" viewBox="0 0 26 26" fill="none" xmlns="http://www.w3.org/2000/svg">
<path fill-rule="evenodd" clip-rule="evenodd" d="M16.88 3.88C16.3179 3.31723 15.5554 3.0007 14.76 3H7C6.46957 3 5.96086 3.21071 5.58579 3.58579C5.21071 3.96086 5 4.46957 5 5V21C5 21.5304 5.21071 22.0391 5.58579 22.4142C5.96086 22.7893 6.46957 23 7 23H19C19.5304 23 20.0391 22.7893 20.4142 22.4142C20.7893 22.0391 21 21.5304 21 21V9.24C20.9993 8.44462 20.6828 7.68207 20.12 7.12L16.88 3.88ZM9.5 10H16.5C16.7761 10 17 10.2239 17 10.5V11.5C17 11.7761 16.7761 12 16.5 12H9.5C9.22386 12 9 11.7761 9 11.5V10.5C9 10.2239 9.22386 10 9.5 10ZM9.5 15H16.5C16.7761 15 17 15.2239 17 15.5V16.5C17 16.7761 16.7761 17 16.5 17H9.5C9.22386 17 9 16.7761 9 16.5V15.5C9 15.2239 9.22386 15 9.5 15Z" fill="black"/>
</svg>
