<svg width="26" height="26" viewBox="0 0 26 26" fill="none" xmlns="http://www.w3.org/2000/svg">
<path d="M7.05199 19.8254L6.17463 18.948C5.48522 18.2594 4.93829 17.4417 4.56522 16.5416C4.19216 15.6415 4 14.6768 4 13.7024C4 12.728 4.19216 11.7632 4.56522 10.8631C4.93829 9.96296 5.48522 9.14528 6.17463 8.45673L17.5433 19.8254C16.8546 20.5147 16.0369 21.0616 15.1368 21.4347C14.2367 21.8079 13.2719 21.9999 12.2976 21.9999C11.3233 21.9999 10.3584 21.8079 9.45832 21.4347C8.55822 21.0616 7.74054 20.5147 7.05199 19.8254ZM20.163 18.948C20.2788 18.8331 20.3707 18.6964 20.4334 18.5459C20.4962 18.3953 20.5285 18.2338 20.5285 18.0707C20.5285 17.9076 20.4962 17.746 20.4334 17.5954C20.3707 17.4448 20.2788 17.3081 20.163 17.1933L8.76965 5.837C8.65472 5.72109 8.51805 5.62927 8.36742 5.5665C8.21691 5.50373 8.0554 5.47147 7.89228 5.47147C7.72904 5.47147 7.56754 5.50373 7.41702 5.5665C7.26639 5.62927 7.12972 5.72109 7.01492 5.837C6.89901 5.9518 6.80707 6.08847 6.74442 6.2391C6.68164 6.38974 6.64939 6.55125 6.64939 6.71436C6.64939 6.87748 6.68164 7.03899 6.74442 7.1895C6.80707 7.34013 6.89901 7.47681 7.01492 7.59173L18.3712 18.948C18.4866 19.0695 18.6255 19.1663 18.7796 19.2324C18.9336 19.2985 19.0994 19.3326 19.2671 19.3326C19.4347 19.3326 19.6005 19.2985 19.7546 19.2324C19.9086 19.1663 20.0475 19.0695 20.163 18.948ZM16.53 5.10792C16.7601 4.87635 16.8893 4.56322 16.8893 4.23674C16.8893 3.91026 16.7601 3.597 16.53 3.36555C16.4151 3.24964 16.2784 3.15783 16.1278 3.09505C15.9773 3.03228 15.8157 3 15.6526 3C15.4894 3 15.3279 3.03228 15.1774 3.09505C15.0267 3.15783 14.8901 3.24964 14.7753 3.36555L11.3276 6.81322L13.07 8.55559L16.53 5.10792ZM22.6345 11.2865C22.7503 11.1716 22.8422 11.0349 22.9048 10.8843C22.9676 10.7338 23 10.5723 23 10.4092C23 10.2461 22.9676 10.0846 22.9048 9.93392C22.8422 9.78328 22.7503 9.64661 22.6345 9.53181C22.4029 9.3016 22.0896 9.17247 21.7633 9.17247C21.4368 9.17247 21.1235 9.3016 20.8921 9.53181L17.4197 12.9053L19.1621 14.6477L22.6345 11.2865Z" fill="black"/>
</svg>
