<svg width="120" height="121" viewBox="0 0 120 121" fill="none" xmlns="http://www.w3.org/2000/svg">
<g id="Frame" clip-path="url(#clip0_404_23100)">
<g id="Clip path group">
<mask id="mask0_404_23100" style="mask-type:luminance" maskUnits="userSpaceOnUse" x="0" y="0" width="120" height="121">
<g id="not-available_svg__a">
<path id="Vector" d="M0 0.0556641H120V120.056H0V0.0556641Z" fill="white"/>
</g>
</mask>
<g mask="url(#mask0_404_23100)">
<g id="Group">
<path id="Vector_2" d="M105.631 66.0557H81.6309L86.6309 52.0557H116.391L105.631 66.0557Z" fill="#C2E2FF"/>
<path id="Vector_3" d="M38.5404 102.916H12.6504L13.1504 80.5057L39.3204 80.4457L38.5404 102.916Z" fill="#116DFF"/>
<path id="Vector_4" d="M39.1797 65.6057L90.0397 81.9456L107.07 21.8156L56.2097 5.47565L39.1897 65.6057H39.1797Z" fill="#28BF9A"/>
<path id="Vector_5" d="M97.4705 69.3956H51.0605L52.9505 15.1556H99.3605L97.4705 69.3956Z" fill="white"/>
<path id="Vector_6" d="M95.6002 32.6656H67.4402L67.6202 27.3356H95.7802L95.6002 32.6656ZM95.6002 46.3756H67.4402L67.6202 41.0456H95.7802L95.6002 46.3756ZM59.6502 33.4456C61.9002 33.4456 63.7902 31.6256 63.8602 29.3756C63.8832 28.8468 63.7983 28.3189 63.6107 27.824C63.4231 27.3291 63.1368 26.8775 62.7692 26.4967C62.4015 26.116 61.9602 25.814 61.4722 25.6093C60.9841 25.4045 60.4595 25.3012 59.9302 25.3056C57.6802 25.3056 55.7902 27.1256 55.7202 29.3756C55.6973 29.9044 55.7822 30.4323 55.9698 30.9272C56.1573 31.4222 56.4436 31.8737 56.8113 32.2545C57.1789 32.6352 57.6202 32.9372 58.1083 33.142C58.5963 33.3467 59.121 33.45 59.6502 33.4456ZM59.1602 47.4956C61.4102 47.4956 63.3002 45.6756 63.3702 43.4256C63.3932 42.8968 63.3083 42.3689 63.1207 41.874C62.9331 41.3791 62.6468 40.9275 62.2792 40.5467C61.9115 40.166 61.4702 39.864 60.9822 39.6593C60.4941 39.4545 59.9695 39.3512 59.4402 39.3556C57.1902 39.3556 55.3002 41.1756 55.2302 43.4256C55.2073 43.9544 55.2922 44.4823 55.4798 44.9772C55.6673 45.4722 55.9536 45.9237 56.3213 46.3045C56.6889 46.6852 57.1302 46.9872 57.6183 47.192C58.1063 47.3967 58.631 47.5 59.1602 47.4956Z" fill="#C2E2FF"/>
<path id="Vector_7" d="M94.5595 60.5957H66.5195L66.7095 55.2957H94.7495L94.5595 60.5957Z" fill="#C1E1FF"/>
<path id="Vector_8" d="M58.67 61.5356C60.92 61.5356 62.81 59.7156 62.88 57.4656C62.9029 56.9369 62.818 56.4089 62.6305 55.914C62.4429 55.4191 62.1566 54.9675 61.7889 54.5868C61.4213 54.206 60.98 53.9041 60.4919 53.6993C60.0039 53.4945 59.4793 53.3912 58.95 53.3956C56.7 53.3956 54.81 55.2156 54.74 57.4656C54.717 57.9944 54.8019 58.5223 54.9895 59.0173C55.1771 59.5122 55.4634 59.9638 55.8311 60.3445C56.1987 60.7253 56.64 61.0272 57.1281 61.232C57.6161 61.4368 58.1407 61.5401 58.67 61.5356Z" fill="#C2E2FF"/>
<path id="Vector_9" d="M57.5391 27.7356L59.5091 30.7456L63.8691 25.0756" stroke="#28BF9A" stroke-width="2" stroke-miterlimit="10"/>
<path id="Vector_10" d="M105.631 66.0556H29.6309V103.756H105.631V66.0556ZM53.6309 65.7556H29.6309L24.6309 51.7556H48.6309L53.6309 65.7556Z" fill="#C2E2FF"/>
<path id="Vector_11" d="M86.6309 65.7556H78.6309V77.7556H86.6309V65.7556Z" fill="white"/>
<path id="Vector_12" d="M29.63 66.2556H53.63M4 103.556H109M53.13 66.7556V102.756M20.34 80.4456L19.55 103.366" stroke="#192C55" stroke-miterlimit="10"/>
</g>
</g>
</g>
</g>
<defs>
<clipPath id="clip0_404_23100">
<rect width="120" height="120" fill="white" transform="translate(0 0.0556641)"/>
</clipPath>
</defs>
</svg>
